<svg width="329" height="177" viewBox="0 0 329 177" fill="none" xmlns="http://www.w3.org/2000/svg">
<path opacity="0.3" d="M164.46 177C255.289 177 328.92 171.224 328.92 164.099C328.92 156.974 255.289 151.198 164.46 151.198C73.6313 151.198 0 156.974 0 164.099C0 171.224 73.6313 177 164.46 177Z" fill="#E6E6E6"/>
<path d="M34.6873 86.8367C34.6873 86.8367 17.8316 94.9696 15.6357 113.584C13.4398 132.198 7.20784 168.216 53.0171 166.132C98.8264 164.048 120.43 161.527 109.623 126.485C98.8162 91.442 34.6873 86.8367 34.6873 86.8367Z" fill="#F5802F"/>
<path opacity="0.09" d="M32.989 96.5454C32.5179 99.1763 32.8475 101.888 33.935 104.329C35.0225 106.771 36.8179 108.83 39.0888 110.239C45.3004 114.306 54.8669 128.884 62.2883 136.254C63.453 137.398 64.3741 138.766 64.9961 140.276C65.6181 141.785 65.9281 143.405 65.9075 145.038C65.9289 145.873 66.1472 146.691 66.5447 147.426C66.9422 148.161 67.5076 148.792 68.1949 149.267C73.3492 153.476 94.9729 155.59 107.071 142.628C119.169 129.667 103.218 123.252 103.218 123.252L50.0684 94.4817L32.989 96.5454Z" fill="black"/>
<path d="M150.481 160.033C150.842 160.87 151.383 161.618 152.067 162.221C152.751 162.824 153.56 163.267 154.436 163.52C157.262 164.16 158.797 167.637 152.616 167.068C146.435 166.498 143.05 167.474 143.934 164.079C144.819 160.683 144.422 160.175 144.422 160.175L150.481 160.033Z" fill="#F4A28C"/>
<path d="M108.983 157.603C108.867 158.508 108.955 159.426 109.238 160.293C109.521 161.16 109.993 161.953 110.619 162.615C112.724 164.648 112.276 168.389 107.244 164.75C102.212 161.11 98.7961 160.226 101.287 157.766C103.777 155.306 103.696 154.645 103.696 154.645L108.983 157.603Z" fill="#F4A28C"/>
<path d="M114.351 114.682C114.351 114.682 152.139 115.068 151.773 160.134L142.857 161.639C142.857 161.639 141.149 114.062 92.0255 136.722L94.5874 117.976L114.351 114.682Z" fill="#24285B"/>
<path opacity="0.09" d="M114.351 114.682C114.351 114.682 152.139 115.068 151.773 160.134L142.857 161.639C142.857 161.639 141.149 114.062 92.0255 136.722L94.5874 117.976L114.351 114.682Z" fill="black"/>
<path d="M117.35 73.1735L120.623 74.0478L118.295 71.5367L117.35 73.1735Z" fill="#FFD200"/>
<path d="M65.8473 95.478C65.8473 95.478 72.3739 111.967 88.3144 109.08C104.255 106.193 110.304 72.7364 110.304 72.7364C110.304 72.7364 116.617 68.6699 113.557 64.0647C110.497 59.4594 105.546 69.3815 105.546 69.3815C105.546 69.3815 98.6838 97.5518 83.821 88.4227L65.8473 95.478Z" fill="#F4A28C"/>
<path opacity="0.09" d="M65.8473 95.478C65.8473 95.478 72.3739 111.967 88.3144 109.08C104.255 106.193 110.304 72.7364 110.304 72.7364C110.304 72.7364 116.617 68.6699 113.557 64.0647C110.497 59.4594 105.546 69.3815 105.546 69.3815C105.546 69.3815 98.6838 97.5518 83.821 88.4227L65.8473 95.478Z" fill="black"/>
<path d="M65.9986 61.9501L69.4551 62.6719C69.4551 62.6719 96.0699 77.118 91.119 91.5945C86.1681 106.071 96.9849 119.816 96.9849 119.816L73.8367 136.081C73.8367 136.081 43.5925 121.056 48.1164 79.7408C48.1164 79.7815 50.2208 60.5167 65.9986 61.9501Z" fill="#2673D1"/>
<path d="M127.186 70.1148L122.824 68.0178L104.903 105.289L109.264 107.386L127.186 70.1148Z" fill="#E6E6E6"/>
<path d="M64.7391 43.7935L59.9508 60.6895L69.4561 62.6618L69.1206 49.578L64.7391 43.7935Z" fill="#F4A28C"/>
<path opacity="0.31" d="M69.3137 52.4448C68.1544 51.9958 67.1511 51.2186 66.4266 50.2083C66.4266 50.2083 66.1826 53.4207 69.3137 56.989V52.4448Z" fill="#CE8172"/>
<path d="M74.5796 44.2916C74.2935 47.2602 73.6096 50.1769 72.5464 52.9633C72.4015 53.2867 72.1939 53.5783 71.9357 53.8211C71.6774 54.0639 71.3737 54.2531 71.0419 54.3779C70.7102 54.5027 70.357 54.5605 70.0027 54.548C69.6485 54.5355 69.3003 54.453 68.9781 54.3052C67.9081 53.8934 66.9799 53.1811 66.3054 52.254C65.6308 51.3269 65.2386 50.2246 65.176 49.0798L64.4237 44.1899C64.3716 43.1961 64.6304 42.2107 65.1643 41.3707C65.6981 40.5308 66.4804 39.8781 67.4024 39.5034C70.808 37.8869 74.9964 41.0893 74.5796 44.2916Z" fill="#F4A28C"/>
<path d="M68.175 47.8091C68.175 47.8091 68.4902 45.7759 66.9348 45.6539C65.3794 45.5319 64.9016 48.4801 66.9348 49.1307L68.175 47.8091Z" fill="#F4A28C"/>
<path d="M74.1121 47.6362L75.2202 49.9338C75.2839 50.0636 75.3136 50.2076 75.3065 50.3521C75.2993 50.4965 75.2556 50.6369 75.1794 50.7598C75.1032 50.8828 74.997 50.9844 74.8707 51.055C74.7445 51.1257 74.6024 51.1632 74.4577 51.1639H72.3635L74.1121 47.6362Z" fill="#F4A28C"/>
<path d="M118.922 72.0581L102.453 62.5936L101.508 64.2386L117.976 73.7032L118.922 72.0581Z" fill="#24285B"/>
<path opacity="0.18" d="M79.1431 127.135L73.8364 136.122C73.8364 136.122 54.5818 126.81 49.0616 101.557C43.5414 76.3047 61.7794 86.1353 61.7794 86.1353L79.1431 127.135Z" fill="black"/>
<path d="M73.8376 136.122C73.8376 136.122 91.6792 99.7477 118.06 99.8901C144.441 100.032 110.171 158.569 110.171 158.569L101.428 155.031C101.428 155.031 114.38 129.911 111.066 121.829C107.752 113.746 102.781 169.528 73.8376 136.122Z" fill="#24285B"/>
<path d="M58.567 63.9935C58.567 63.9935 66.5068 59.9271 70.5428 68.1413C74.5789 76.3555 71.3968 111.51 87.7645 113.34C104.132 115.17 112.438 98.0907 112.438 98.0907C112.438 98.0907 113.79 90.893 116.047 89.7239C118.304 88.5548 120.266 96.0778 116.047 100.47C116.047 100.47 108.829 127.593 85.9346 128.203C63.0401 128.813 35.9775 82.5568 58.567 63.9935Z" fill="#F4A28C"/>
<path d="M74.619 37.3583C74.619 37.3583 79.8342 43.458 73.0738 44.7796C66.3133 46.1011 64.9409 47.2804 65.5813 54.1222C66.2218 60.964 68.8955 67.2568 59.9493 71.5876C51.0031 75.9183 58.7294 82.9838 57.0418 91.4115C55.3542 99.8392 47.5162 105.644 37.4416 99.89C27.3669 94.136 21.1758 79.507 31.9417 70.7133C42.7076 61.9196 56.3404 59.8051 56.3404 45.6538C56.3404 31.5026 67.6349 30.7707 74.619 37.3583Z" fill="#24285B"/>
<path d="M117.77 100.07L111.083 97.52L109.645 101.291L116.333 103.841L117.77 100.07Z" fill="#2673D1"/>
<path opacity="0.44" d="M117.77 100.07L111.083 97.52L109.645 101.291L116.333 103.841L117.77 100.07Z" fill="white"/>
<path d="M287.411 84.3359C287.411 84.3359 321.163 90.0391 319.598 113.584C318.357 132.31 328.025 168.216 282.226 166.163C236.427 164.109 214.814 161.558 225.61 126.515C236.407 91.4725 287.411 84.3359 287.411 84.3359Z" fill="#F5802F"/>
<path opacity="0.09" d="M302.244 96.5454C302.715 99.1763 302.385 101.888 301.298 104.329C300.21 106.771 298.415 108.83 296.144 110.239C289.932 114.306 280.376 128.884 272.945 136.254C271.782 137.4 270.862 138.768 270.24 140.277C269.618 141.786 269.307 143.406 269.325 145.038C269.304 145.873 269.086 146.691 268.688 147.426C268.291 148.161 267.725 148.792 267.038 149.267C261.884 153.476 240.26 155.59 228.172 142.628C216.085 129.667 232.015 123.252 232.015 123.252L284.422 86.9689C282.613 86.0133 300.099 89.4698 302.244 96.5454Z" fill="black"/>
<path d="M184.792 160.033C184.431 160.871 183.888 161.619 183.203 162.222C182.517 162.826 181.706 163.269 180.828 163.52C178.002 164.16 176.466 167.637 182.647 167.068C188.828 166.498 192.224 167.474 191.329 164.079C190.435 160.683 190.851 160.175 190.851 160.175L184.792 160.033Z" fill="#F4A28C"/>
<path d="M214.346 161.639C214.144 162.53 213.746 163.366 213.182 164.085C212.617 164.804 211.9 165.389 211.082 165.797C208.429 166.946 207.544 170.636 213.522 168.959C219.5 167.281 223.007 167.606 221.513 164.435C220.018 161.263 220.323 160.683 220.323 160.683L214.346 161.639Z" fill="#F4A28C"/>
<path d="M220.883 114.682C220.883 114.682 183.094 115.068 183.46 160.134L192.386 161.639C192.386 161.639 194.094 114.062 243.218 136.722L240.656 117.976L220.883 114.682Z" fill="#24285B"/>
<path opacity="0.09" d="M220.883 114.682C220.883 114.682 183.094 115.068 183.46 160.134L192.386 161.639C192.386 161.639 194.094 114.062 243.218 136.722L240.656 117.976L220.883 114.682Z" fill="black"/>
<path d="M222.245 73.5192C222.245 73.5192 208.775 80.4321 204.159 77.2705C199.544 74.1088 198.232 56.5113 198.232 56.5113L191.909 57.9142C191.909 57.9142 189.479 92.6823 200.184 96.2913C210.889 99.9003 229.524 90.6694 229.524 90.6694L222.245 73.5192Z" fill="#F4A28C"/>
<path d="M259.057 73.4988C254.614 82.323 244.885 94.1462 224.248 96.3319L219.826 74.1596C219.826 74.1596 235.522 64.2375 252.144 62.9769C253.42 62.8938 254.697 63.1506 255.842 63.7213C256.987 64.2919 257.961 65.156 258.663 66.2254C259.366 67.2948 259.772 68.5313 259.841 69.809C259.911 71.0867 259.64 72.3599 259.057 73.4988Z" fill="#2673D1"/>
<path opacity="0.46" d="M259.057 73.4988C254.614 82.323 244.885 94.1462 224.248 96.3319L219.826 74.1596C219.826 74.1596 235.522 64.2375 252.144 62.9769C253.42 62.8938 254.697 63.1506 255.842 63.7213C256.987 64.2919 257.961 65.156 258.663 66.2254C259.366 67.2948 259.772 68.5313 259.841 69.809C259.911 71.0867 259.64 72.3599 259.057 73.4988Z" fill="white"/>
<path d="M197.917 56.5825C198.232 56.5113 198.547 49.7915 197.734 50.4116C197.185 50.9137 196.799 51.5688 196.626 52.2924C196.626 52.2924 196.626 47.5346 194.176 48.0633C191.726 48.5919 190.892 54.0715 191.858 57.9142L197.876 56.8061" fill="#F4A28C"/>
<path d="M255.428 42.7972C255.091 45.2799 255.091 47.7967 255.428 50.2794C255.485 50.5714 255.599 50.8491 255.764 51.0964C255.93 51.3438 256.142 51.5559 256.39 51.7205C256.638 51.885 256.916 51.9987 257.208 52.055C257.5 52.1113 257.8 52.109 258.091 52.0483C259.037 51.9109 259.923 51.5042 260.644 50.8769C261.365 50.2496 261.891 49.4282 262.158 48.5105L263.703 44.6576C263.931 43.8525 263.904 42.9969 263.628 42.2073C263.351 41.4177 262.838 40.7326 262.158 40.2455C259.728 38.2936 255.672 40.0727 255.428 42.7972Z" fill="#F4A28C"/>
<path d="M263.439 45.3489L264.974 60.0186L256.831 60.2931L258.986 49.5068L263.439 45.3489Z" fill="#F4A28C"/>
<path d="M256.536 43.0514C257.921 43.1781 259.317 43.144 260.694 42.9497C260.272 43.535 260.026 44.2293 259.986 44.9502C259.947 45.671 260.115 46.388 260.47 47.0162C260.816 47.6379 261.367 48.1194 262.03 48.3775C262.693 48.6355 263.425 48.6538 264.1 48.4292L264.334 42.6447C264.395 41.82 264.232 40.9941 263.861 40.2548C263.491 39.5155 262.927 38.8904 262.229 38.4461C261.626 38.0656 260.997 37.726 260.348 37.4295C258.722 36.6772 256.231 37.6532 254.798 36.4129C254.653 36.2933 254.48 36.2132 254.295 36.1803C254.11 36.1474 253.92 36.163 253.743 36.2254C253.566 36.2878 253.408 36.395 253.285 36.5366C253.161 36.6781 253.077 36.8491 253.039 37.033C252.693 38.7714 252.856 41.5468 255.184 42.6346C255.608 42.8497 256.065 42.9907 256.536 43.0514Z" fill="#DD6034"/>
<path d="M260.023 46.9043C260.023 46.9043 260.145 45.1761 261.436 45.3794C262.727 45.5827 262.564 48.0836 260.785 48.2158L260.023 46.9043Z" fill="#F4A28C"/>
<path d="M255.184 45.6335L253.832 47.2906C253.757 47.3865 253.707 47.4995 253.687 47.6194C253.667 47.7393 253.677 47.8623 253.717 47.9773C253.756 48.0923 253.823 48.1957 253.913 48.2781C254.002 48.3606 254.11 48.4195 254.228 48.4496L255.926 48.8664L255.184 45.6335Z" fill="#F4A28C"/>
<path opacity="0.31" d="M258.407 51.845C259.431 51.6456 260.374 51.1509 261.121 50.4218C260.701 52.513 259.502 54.3664 257.766 55.6065L258.407 51.845Z" fill="#CE8172"/>
<path d="M282.602 74.485C280.941 70.061 277.926 66.274 273.986 63.6637C270.047 61.0534 265.385 59.7529 260.663 59.9474L257.054 60.0694C257.054 60.0694 231.69 59.9576 229.768 83.055C227.847 106.152 238.288 124.451 238.288 124.451L272.375 125.692C272.375 125.692 289.962 94.8579 282.602 74.485Z" fill="#2673D1"/>
<path opacity="0.08" d="M265.432 71.9434C265.432 71.9434 260.572 89.0835 262.382 105.695C264.191 122.306 259.434 125.224 259.434 125.224L272.406 125.692C272.406 125.692 276.258 119.023 277.306 115.526C278.353 112.028 283.954 72.6042 265.432 71.9434Z" fill="black"/>
<path d="M277.143 65.7421C284.992 71.7401 294.812 83.4921 293.124 104.18L270.515 104.414C270.515 104.414 263.683 87.1316 265.564 70.5913C265.723 69.3278 266.211 68.1285 266.982 67.1143C267.752 66.1002 268.776 65.3071 269.95 64.8153C271.125 64.3234 272.408 64.15 273.671 64.3128C274.934 64.4755 276.132 64.9685 277.143 65.7421Z" fill="#2673D1"/>
<path opacity="0.46" d="M277.143 65.7421C284.992 71.7401 294.812 83.4921 293.124 104.18L270.515 104.414C270.515 104.414 263.683 87.1316 265.564 70.5913C265.723 69.3278 266.211 68.1285 266.982 67.1143C267.752 66.1002 268.776 65.3071 269.95 64.8153C271.125 64.3234 272.408 64.15 273.671 64.3128C274.934 64.4755 276.132 64.9685 277.143 65.7421Z" fill="white"/>
<path d="M290.989 104.201C290.989 104.201 291.569 134.811 282.745 152.418L277.926 151.697C277.926 151.697 281.911 122.398 273.941 104.383L290.989 104.201Z" fill="#F4A28C"/>
<path d="M282.744 152.418C282.744 152.418 280.66 162.483 275.262 158.813C269.864 155.143 277.926 151.697 277.926 151.697L282.744 152.418Z" fill="#F4A28C"/>
<path d="M272.019 126.556C272.019 126.556 243.554 99.7477 217.182 99.89C190.811 100.032 211.083 165.309 211.083 165.309L219.795 161.771C219.795 161.771 220.812 129.911 224.106 121.828C227.4 113.746 240.534 167.088 272.019 126.556Z" fill="#24285B"/>
<path d="M230.358 19.0695H189.53V26.6331H178.906V0.73999H113.964V39.9202H178.906V28.5545H189.53V43.6918H221.249L227.348 53.0141V43.6918H230.358V19.0695Z" fill="#CEE0F6"/>
<path opacity="0.09" d="M201.801 34.3288C203.171 34.3288 204.281 33.2182 204.281 31.8483C204.281 30.4783 203.171 29.3677 201.801 29.3677C200.431 29.3677 199.32 30.4783 199.32 31.8483C199.32 33.2182 200.431 34.3288 201.801 34.3288Z" fill="black"/>
<path opacity="0.09" d="M209.944 34.3288C211.314 34.3288 212.424 33.2182 212.424 31.8483C212.424 30.4783 211.314 29.3677 209.944 29.3677C208.574 29.3677 207.463 30.4783 207.463 31.8483C207.463 33.2182 208.574 34.3288 209.944 34.3288Z" fill="black"/>
<path opacity="0.09" d="M218.087 34.3288C219.457 34.3288 220.568 33.2182 220.568 31.8483C220.568 30.4783 219.457 29.3677 218.087 29.3677C216.717 29.3677 215.607 30.4783 215.607 31.8483C215.607 33.2182 216.717 34.3288 218.087 34.3288Z" fill="black"/>
<path opacity="0.09" d="M134.155 21.8855C135.974 21.8855 137.448 20.4108 137.448 18.5917C137.448 16.7726 135.974 15.2979 134.155 15.2979C132.335 15.2979 130.861 16.7726 130.861 18.5917C130.861 20.4108 132.335 21.8855 134.155 21.8855Z" fill="black"/>
<path opacity="0.09" d="M144.951 21.8855C146.77 21.8855 148.245 20.4108 148.245 18.5917C148.245 16.7726 146.77 15.2979 144.951 15.2979C143.132 15.2979 141.657 16.7726 141.657 18.5917C141.657 20.4108 143.132 21.8855 144.951 21.8855Z" fill="black"/>
<path opacity="0.09" d="M155.748 21.8855C157.567 21.8855 159.041 20.4108 159.041 18.5917C159.041 16.7726 157.567 15.2979 155.748 15.2979C153.929 15.2979 152.454 16.7726 152.454 18.5917C152.454 20.4108 153.929 21.8855 155.748 21.8855Z" fill="black"/>
</svg>
